<svg width="584.225px" height="122px" xmlns="http://www.w3.org/2000/svg" viewBox="-42.11250000000001 14 584.225 122" style="background: rgba(0, 0, 0, 0);" preserveAspectRatio="xMidYMid"><defs><filter id="editing-vr"><feFlood flood-color="#f00" flood-opacity="0.7" result="c1"></feFlood><feFlood flood-color="#00f" flood-opacity="0.7" result="c3"></feFlood><feComposite operator="in" in="c1" in2="SourceAlpha" result="text-c1"></feComposite><feComposite operator="in" in="c3" in2="SourceAlpha" result="text-c3"></feComposite><feOffset in="text-c1" dx="5" dy="-1" result="text1"></feOffset><feOffset in="text-c3" dx="-5" dy="1" result="text3"></feOffset><feBlend in="SourceGraphic" in2="text1" mode="multiply" result="text4"></feBlend><feBlend in="text4" in2="text3" mode="multiply"></feBlend></filter></defs><g filter="url(#editing-vr)"><g transform="translate(44.06264317035675, 97.46500015258789)"><path d="M6.53 0L-0.83 0L10.75-42.24L24.13-42.24L27.07-18.11L38.98-42.24L50.18-42.24L51.33-10.62L51.33-10.62Q51.58-4.35 54.66-2.43L54.66-2.43L54.66-2.43Q53.95-1.15 51.90 0.06L51.90 0.06L51.90 0.06Q49.86 1.28 47.14 1.28L47.14 1.28L47.14 1.28Q44.42 1.28 42.82 0.51L42.82 0.51L42.82 0.51Q41.22-0.26 40.32-1.54L40.32-1.54L40.32-1.54Q38.72-3.84 38.72-8.26L38.72-8.26L38.72-28.03L26.11 0L18.18 0L13.70-28.74L6.53 0ZM85.50 1.28L85.50 1.28L85.50 1.28Q77.31 1.28 76.54-10.37L76.54-10.37L65.54-10.37L65.54-10.37Q64.26-7.42 63.36-4.86L63.36-4.86L61.70 0L52.74 0L72.90-42.24L86.66-42.24L89.34-11.14L89.34-11.14Q89.98-4.42 92.54-2.43L92.54-2.43L92.54-2.43Q90.69 1.28 85.50 1.28ZM71.04-23.17L67.52-15.04L76.35-15.04L75.58-31.49L75.58-33.22L71.04-23.17ZM121.22-29.57L121.22-29.57L121.22-29.57Q122.18-31.49 122.18-33.28L122.18-33.28L122.18-33.28Q122.18-35.07 121.98-36.06L121.98-36.06L121.98-36.06Q121.79-37.06 121.34-37.82L121.34-37.82L121.34-37.82Q120.38-39.49 118.46-39.49L118.46-39.49L118.46-39.49Q116.10-39.49 114.18-37.76L114.18-37.76L114.18-37.76Q112.13-35.97 112.13-33.15L112.13-33.15L112.13-33.15Q112.13-31.36 113.38-29.98L113.38-29.98L113.38-29.98Q114.62-28.61 116.54-27.33L116.54-27.33L116.54-27.33Q118.46-26.05 120.64-24.77L120.64-24.77L120.64-24.77Q122.82-23.49 124.74-21.95L124.74-21.95L124.74-21.95Q129.15-18.43 129.15-13.70L129.15-13.70L129.15-13.70Q129.15-10.50 127.46-7.78L127.46-7.78L127.46-7.78Q125.76-5.06 122.94-3.07L122.94-3.07L122.94-3.07Q116.80 1.28 108.67 1.28L108.67 1.28L108.67 1.28Q102.08 1.28 98.69-0.86L98.69-0.86L98.69-0.86Q95.30-3.01 95.30-6.27L95.30-6.27L95.30-6.27Q95.30-12.10 99.84-13.57L99.84-13.57L99.84-13.57Q101.12-14.02 103.07-14.02L103.07-14.02L103.07-14.02Q105.02-14.02 107.26-13.18L107.26-13.18L107.26-13.18Q106.24-10.56 106.24-8.19L106.24-8.19L106.24-8.19Q106.24-3.07 109.89-3.07L109.89-3.07L109.89-3.07Q112.26-3.07 114.21-4.80L114.21-4.80L114.21-4.80Q116.16-6.53 116.16-8.48L116.16-8.48L116.16-8.48Q116.16-10.43 114.91-11.84L114.91-11.84L114.91-11.84Q113.66-13.25 111.81-14.37L111.81-14.37L111.81-14.37Q109.95-15.49 107.81-16.58L107.81-16.58L107.81-16.58Q105.66-17.66 103.81-19.20L103.81-19.20L103.81-19.20Q99.46-22.72 99.46-28.35L99.46-28.35L99.46-28.35Q99.46-32 101.25-34.85L101.25-34.85L101.25-34.85Q103.04-37.70 105.92-39.62L105.92-39.62L105.92-39.62Q111.68-43.52 118.75-43.52L118.75-43.52L118.75-43.52Q125.82-43.52 129.25-41.41L129.25-41.41L129.25-41.41Q132.67-39.30 132.67-35.71L132.67-35.71L132.67-35.71Q132.67-32.58 130.24-30.59L130.24-30.59L130.24-30.59Q128.13-28.93 125.57-28.93L125.57-28.93L125.57-28.93Q123.01-28.93 121.22-29.57ZM139.14-31.17L139.14-31.17L139.14-31.17Q136.96-32.83 136.96-36.38L136.96-36.38L136.96-36.38Q136.96-39.94 139.30-41.79L139.30-41.79L139.30-41.79Q141.63-43.65 145.66-43.65L145.66-43.65L145.66-43.65Q148.22-43.65 154.30-42.75L154.30-42.75L158.66-42.11L158.66-42.11Q160.83-41.86 163.10-41.86L163.10-41.86L163.10-41.86Q165.38-41.86 166.91-42.82L166.91-42.82L166.91-42.82Q169.22-40.77 169.22-37.82L169.22-37.82L169.22-37.82Q169.22-34.88 166.59-32.77L166.59-32.77L166.59-32.77Q163.90-30.53 160.45-30.53L160.45-30.53L160.45-30.53Q158.78-30.53 156.10-30.98L156.10-30.98L156.10-30.98Q152.96-21.12 152.96-14.27L152.96-14.27L152.96-14.27Q152.96-7.42 156.42-3.84L156.42-3.84L156.42-3.84Q154.82-0.96 152.45 0.16L152.45 0.16L152.45 0.16Q150.08 1.28 146.53 1.28L146.53 1.28L146.53 1.28Q142.98 1.28 140.77-0.67L140.77-0.67L140.77-0.67Q138.56-2.62 138.56-6.66L138.56-6.66L138.56-6.66Q138.56-11.33 141.12-19.01L141.12-19.01L141.12-19.01Q143.68-26.62 147.52-32.45L147.52-32.45L147.52-32.45Q145.66-32.64 143.74-32.64L143.74-32.64L143.74-32.64Q139.78-32.64 139.14-31.17ZM194.50-9.86L194.50-9.86L194.50-9.86Q195.71-8.32 195.71-5.82L195.71-5.82L195.71-5.82Q195.71-2.37 193.15-0.54L193.15-0.54L193.15-0.54Q190.59 1.28 186.56 1.28L186.56 1.28L186.56 1.28Q184.26 1.28 180.74 0.77L180.74 0.77L180.74 0.77Q173.82-0.32 171.71-0.32L171.71-0.32L171.71-0.32Q169.60-0.32 168.77-0.22L168.77-0.22L168.77-0.22Q167.94-0.13 166.59 0L166.59 0L174.46-42.24L202.05-42.24L202.05-42.24Q202.05-38.34 200.16-36.29L200.16-36.29L200.16-36.29Q198.27-34.24 194.56-34.24L194.56-34.24L194.56-34.24Q190.85-34.24 187.07-35.97L187.07-35.97L185.09-24.77L196.48-24.77L196.48-24.77Q196.48-21.38 194.82-19.49L194.82-19.49L194.82-19.49Q193.15-17.60 190.37-17.60L190.37-17.60L190.37-17.60Q187.58-17.60 185.86-18.24L185.86-18.24L185.86-18.24Q184.13-18.88 183.94-19.07L183.94-19.07L181.63-6.98L181.63-6.98Q183.17-6.78 186.05-6.78L186.05-6.78L186.05-6.78Q190.98-6.78 194.50-9.86ZM214.72 0L201.02 0L208.83-42.05L208.83-42.05Q215.17-42.75 224.42-42.75L224.42-42.75L224.42-42.75Q233.66-42.75 237.95-40.06L237.95-40.06L237.95-40.06Q242.24-37.38 242.24-31.97L242.24-31.97L242.24-31.97Q242.24-26.56 239.46-23.17L239.46-23.17L239.46-23.17Q236.67-19.78 231.87-18.69L231.87-18.69L231.87-18.69Q232.96-13.38 235.46-9.09L235.46-9.09L235.46-9.09Q237.76-5.06 240.45-3.78L240.45-3.78L240.45-3.78Q239.49-1.09 237.54 0.10L237.54 0.10L237.54 0.10Q235.58 1.28 232.80 1.28L232.80 1.28L232.80 1.28Q230.02 1.28 227.84-0.35L227.84-0.35L227.84-0.35Q225.66-1.98 223.94-4.99L223.94-4.99L223.94-4.99Q220.29-11.52 219.90-21.82L219.90-21.82L220.35-21.82L220.35-21.82Q225.09-21.95 227.46-24.42L227.46-24.42L227.46-24.42Q229.82-26.88 229.82-32.06L229.82-32.06L229.82-32.06Q229.82-38.53 224.38-38.78L224.38-38.78L222.98-38.78L222.98-38.78Q222.40-38.78 222.08-38.72L222.08-38.72L214.72 0ZM250.62 0L243.26 0L254.85-42.24L268.22-42.24L271.17-18.11L283.07-42.24L294.27-42.24L295.42-10.62L295.42-10.62Q295.68-4.35 298.75-2.43L298.75-2.43L298.75-2.43Q298.05-1.15 296 0.06L296 0.06L296 0.06Q293.95 1.28 291.23 1.28L291.23 1.28L291.23 1.28Q288.51 1.28 286.91 0.51L286.91 0.51L286.91 0.51Q285.31-0.26 284.42-1.54L284.42-1.54L284.42-1.54Q282.82-3.84 282.82-8.26L282.82-8.26L282.82-28.03L270.21 0L262.27 0L257.79-28.74L250.62 0ZM314.75 0L300.80 0L308.93-42.24L323.01-42.24L314.75 0ZM331.01 0L323.97 0L331.65-42.24L345.41-42.24L355.39-13.18L360.70-42.24L367.81-42.18L360 0L345.34 0L336.13-27.97L331.01 0ZM410.94-26.56L410.94-26.56L410.94-26.56Q410.94 0.70 381.38 0.70L381.38 0.70L381.38 0.70Q376.64 0.70 368.83-0.45L368.83-0.45L376-38.27L376-38.27Q376.51-40.83 376.83-42.30L376.83-42.30L376.83-42.30Q386.56-43.01 390.88-43.01L390.88-43.01L390.88-43.01Q395.20-43.01 399.17-42.11L399.17-42.11L399.17-42.11Q403.14-41.22 405.76-39.23L405.76-39.23L405.76-39.23Q410.94-35.33 410.94-26.56ZM397.76-28.93L397.76-28.93L397.76-28.93Q397.76-38.46 390.91-38.46L390.91-38.46L390.27-38.46L390.27-38.46Q389.95-38.46 389.63-38.40L389.63-38.40L383.04-4.03L383.04-4.03Q383.30-3.90 383.55-3.90L383.55-3.90L384.06-3.90L384.06-3.90Q386.43-3.90 388.90-5.38L388.90-5.38L388.90-5.38Q391.36-6.85 393.28-9.86L393.28-9.86L393.28-9.86Q397.76-16.83 397.76-28.93Z" fill="#444"></path></g></g><style>text {
  font-size: 64px;
  font-family: Arial Black;
  dominant-baseline: central;
  text-anchor: middle;
}</style></svg>